<svg width="85" height="75" viewBox="0 0 85 75" fill="none" xmlns="http://www.w3.org/2000/svg">
<path d="M10.0883 9.375H74.9117C77.4583 9.375 79.5419 7.26562 79.5419 4.6875C79.5419 2.10938 77.4583 0 74.9117 0H10.0883C7.54167 0 5.45806 2.10938 5.45806 4.6875C5.45806 7.26562 7.54167 9.375 10.0883 9.375ZM80.2828 17.8125C79.8661 15.6563 77.9677 14.0625 75.7451 14.0625H9.25486C7.03234 14.0625 5.13394 15.6563 4.71722 17.8125L0.0869768 41.25C-0.468652 44.1563 1.70756 46.875 4.62461 46.875H5.45806V70.3125C5.45806 72.8906 7.54167 75 10.0883 75H47.1302C49.6769 75 51.7605 72.8906 51.7605 70.3125V46.875H70.2815V70.3125C70.2815 72.8906 72.3651 75 74.9117 75C77.4583 75 79.5419 72.8906 79.5419 70.3125V46.875H80.3754C83.2924 46.875 85.4687 44.1563 84.913 41.25L80.2828 17.8125ZM42.5 65.625H14.7185V46.875H42.5V65.625Z" fill="black" fill-opacity="0.7"/>
</svg>
