<svg width="31" height="31" viewBox="0 0 31 31" fill="none" xmlns="http://www.w3.org/2000/svg">
<path d="M15.5508 0.242188C7.27078 0.242188 0.550781 6.96219 0.550781 15.2422C0.550781 23.5222 7.27078 30.2422 15.5508 30.2422C23.8308 30.2422 30.5508 23.5222 30.5508 15.2422C30.5508 6.96219 23.8308 0.242188 15.5508 0.242188ZM11.4858 21.6772L6.10078 16.2922C5.51578 15.7072 5.51578 14.7622 6.10078 14.1772C6.68578 13.5922 7.63078 13.5922 8.21578 14.1772L12.5508 18.4972L22.8708 8.17719C23.4558 7.59219 24.4008 7.59219 24.9858 8.17719C25.5708 8.76219 25.5708 9.70719 24.9858 10.2922L13.6008 21.6772C13.0308 22.2622 12.0708 22.2622 11.4858 21.6772Z" fill="#F05F58"/>
</svg>
