<svg width="20" height="20" viewBox="0 0 20 20" fill="none" xmlns="http://www.w3.org/2000/svg">
<rect width="20" height="20" rx="10" fill="#91C451"/>
<path d="M12.9075 10.8588L12.9046 10.8576L12.9076 10.8525L11.3574 9.99991L12.9148 9.14338L12.9144 9.14261C12.9543 9.11915 12.983 9.08179 12.9945 9.03847C13.006 8.99515 12.9993 8.94927 12.9759 8.91056C12.9748 8.90877 12.9733 8.90732 12.9721 8.90553L12.9731 8.90502L12.4787 8.08926L12.4781 8.08961C12.454 8.05223 12.4159 8.02505 12.3714 8.01363C12.327 8.00221 12.2796 8.00741 12.2391 8.02818L12.2387 8.02767L10.6786 8.88608V7.16713H10.6777C10.6763 7.12252 10.6567 7.08018 10.6231 7.04908C10.5895 7.01798 10.5445 7.00056 10.4977 7.00051C10.4954 7.00051 10.4934 7.00102 10.4911 7.00111V7H9.5024V7.0006C9.45637 7.00174 9.41255 7.01963 9.37995 7.05061C9.34735 7.08158 9.32845 7.12328 9.32714 7.16713H9.3266V8.88318L7.76383 8.02366L7.76329 8.02451C7.72205 8.00328 7.67373 7.9982 7.62863 8.01038C7.58352 8.02255 7.54518 8.051 7.52175 8.08969C7.52068 8.09148 7.52014 8.09345 7.51907 8.09524L7.51817 8.09472L7.02382 8.91048L7.02426 8.91074C6.97877 8.99093 7.00671 9.09074 7.08803 9.13869L7.08785 9.13894L7.09098 9.14065L7.09242 9.14159L7.09403 9.14227L8.65331 9.99983L7.12833 10.8386C7.11503 10.8423 7.10223 10.8475 7.09018 10.854C7.04891 10.8767 7.01875 10.914 7.00628 10.9578C6.99382 11.0016 7.00005 11.0483 7.02364 11.0877L7.02301 11.0881L7.53447 11.932L7.53734 11.9304C7.56453 11.9614 7.60234 11.9823 7.6441 11.9894C7.68587 11.9965 7.72893 11.9893 7.76571 11.9692L7.7684 11.9674L7.77126 11.9722L9.32678 11.1167V12.7883C9.32345 12.8011 9.32171 12.8143 9.32159 12.8276C9.32159 12.9221 9.40174 12.9986 9.5007 12.9994V13H10.5236V12.9968C10.5655 12.99 10.6034 12.9693 10.6308 12.9384C10.6581 12.9075 10.6732 12.8684 10.6732 12.8279L10.6728 12.8249H10.6787V11.1139L12.1983 11.9496C12.2083 11.9586 12.2191 11.9669 12.2315 11.9737C12.2727 11.9964 12.3217 12.0026 12.3677 11.991C12.4138 11.9795 12.4532 11.951 12.4773 11.9119L12.4778 11.9122L12.9734 11.0943L12.9736 11.094L12.9738 11.0936L12.9893 11.0681L12.9866 11.0666C13.0011 11.0286 13.0011 10.987 12.9866 10.949C12.9721 10.9111 12.9441 10.8791 12.9075 10.8588Z" fill="white"/>
</svg>
