<svg width="33" height="29" viewBox="0 0 33 29" fill="none" xmlns="http://www.w3.org/2000/svg">
<path d="M3.91663 3.625H29.0834C30.0721 3.625 30.881 2.80938 30.881 1.8125C30.881 0.815625 30.0721 0 29.0834 0H3.91663C2.92794 0 2.11901 0.815625 2.11901 1.8125C2.11901 2.80938 2.92794 3.625 3.91663 3.625ZM31.1686 6.8875C31.0068 6.05375 30.2698 5.4375 29.4069 5.4375H3.59306C2.7302 5.4375 1.99318 6.05375 1.83139 6.8875L0.0337675 15.95C-0.181947 17.0738 0.662936 18.125 1.79544 18.125H2.11901V27.1875C2.11901 28.1844 2.92794 29 3.91663 29H18.2976C19.2863 29 20.0952 28.1844 20.0952 27.1875V18.125H27.2857V27.1875C27.2857 28.1844 28.0947 29 29.0834 29C30.0721 29 30.881 28.1844 30.881 27.1875V18.125H31.2046C32.3371 18.125 33.1819 17.0738 32.9662 15.95L31.1686 6.8875ZM16.5 25.375H5.71426V18.125H16.5V25.375Z" fill="black" fill-opacity="0.7"/>
</svg>
