<svg width="26" height="40" viewBox="0 0 26 40" fill="none" xmlns="http://www.w3.org/2000/svg">
<path d="M26 20C26 15.7667 24.0662 11.9833 21.06 9.55L19.955 2.78333C19.695 1.18333 18.33 0 16.7537 0H9.2625C7.67 0 6.305 1.18333 6.045 2.78333L4.95625 9.55C1.93375 11.9833 0 15.75 0 20C0 24.25 1.93375 28.0167 4.95625 30.45L6.045 37.2167C6.305 38.8167 7.67 40 9.2625 40H16.7537C18.3463 40 19.695 38.8167 19.955 37.2167L21.06 30.45C24.0662 28.0167 26 24.2333 26 20ZM3.25 20C3.25 14.4833 7.62125 10 13 10C18.3787 10 22.75 14.4833 22.75 20C22.75 25.5167 18.3787 30 13 30C7.62125 30 3.25 25.5167 3.25 20Z" fill="black" fill-opacity="0.7"/>
</svg>
