<svg width="160" height="30" viewBox="0 0 160 30" fill="none" xmlns="http://www.w3.org/2000/svg">
<path d="M31.6696 8.8109C30.6222 8.4606 29.4877 9.02606 29.1374 10.0752L23.433 27.1565C23.0827 28.2039 23.6481 29.3384 24.6955 29.6887C25.7429 30.039 26.8773 29.4717 27.2276 28.4244L32.9321 11.343C33.2824 10.2957 32.7169 9.16298 31.6696 8.81268V8.8109Z" fill="#F05F58"/>
<path d="M24.3791 14.7305L22.656 10.0752C22.2915 9.03144 21.1499 8.48198 20.1061 8.84651C19.0836 9.20392 18.5306 10.31 18.8595 11.3413L20.5826 15.9966C20.9329 17.044 22.0656 17.6112 23.113 17.2609C24.1603 16.9106 24.7276 15.7797 24.3773 14.7305C24.3773 14.7305 24.3773 14.7305 24.3773 14.7288L24.3791 14.7305Z" fill="#FBD402"/>
</svg>
