<svg width="160" height="30" viewBox="0 0 160 30" fill="none" xmlns="http://www.w3.org/2000/svg">
<path d="M31.6696 8.8109C30.6222 8.4606 29.4877 9.02606 29.1374 10.0752L23.433 27.1565C23.0827 28.2039 23.6481 29.3384 24.6955 29.6887C25.7429 30.039 26.8773 29.4717 27.2276 28.4244L32.9321 11.343C33.2824 10.2957 32.7169 9.16298 31.6696 8.81268V8.8109Z" fill="#F05F58"/>
<path d="M24.3791 14.7305L22.656 10.0752C22.2915 9.03144 21.1499 8.48198 20.1061 8.84651C19.0836 9.20392 18.5306 10.31 18.8595 11.3413L20.5826 15.9966C20.9329 17.044 22.0656 17.6112 23.113 17.2609C24.1603 16.9106 24.7276 15.7797 24.3773 14.7305C24.3773 14.7305 24.3773 14.7305 24.3773 14.7288L24.3791 14.7305Z" fill="#FBD402"/>
<path d="M37.422 19.249C37.422 13.0075 42.1413 8.74341 48.2316 8.74341C51.3737 8.74341 53.5858 9.94369 55.1204 11.5352C55.901 12.346 55.8761 13.637 55.0652 14.4176C54.9141 14.5634 54.7398 14.6844 54.5513 14.7786C53.7547 15.1769 52.7909 15.0062 52.1792 14.3572C51.2083 13.3045 49.7947 12.5825 48.2352 12.5825C44.5543 12.5825 41.871 15.4134 41.871 19.2508C41.871 23.0881 44.5508 25.919 48.2352 25.919C49.8124 25.919 51.2314 25.2006 52.2041 24.1337C52.7749 23.4935 53.6978 23.3068 54.4731 23.6731L54.5495 23.7105C55.5542 24.1977 55.9739 25.4051 55.4867 26.4098C55.3942 26.5982 55.2751 26.7725 55.1292 26.9254C53.5929 28.5347 51.3897 29.7599 48.2352 29.7599C42.1431 29.7563 37.422 25.494 37.422 19.2525V19.249Z" fill="#21201F"/>
<path d="M70.9499 28.2946L67.566 22.1723H64.399V27.2277C64.399 28.4209 63.4317 29.39 62.2367 29.39C61.0436 29.39 60.0745 28.4226 60.0745 27.2295V12.7496C60.0745 10.7243 61.7157 9.08301 63.7411 9.08301H69.5771C73.8092 9.08301 76.3965 11.8534 76.3965 15.6285C76.3965 19.4036 74.1435 21.1409 71.951 21.6584L74.6308 26.1946C75.4647 27.6082 74.4458 29.3917 72.8063 29.3917C72.0346 29.3917 71.3233 28.9739 70.9481 28.2982L70.9499 28.2946ZM71.9812 15.6268C71.9812 13.9215 70.6725 12.8866 68.937 12.8866H64.4008V18.367H68.937C70.6725 18.367 71.9812 17.3303 71.9812 15.6268Z" fill="#21201F"/>
<path d="M122.5 27.1316L119.514 15.4453L116.555 27.1263C116.217 28.4581 115.021 29.3899 113.646 29.3899C112.307 29.3899 111.13 28.5026 110.762 27.2152L106.405 12.0027C106.057 10.7865 106.761 9.51861 107.977 9.17009C108.182 9.11141 108.395 9.08118 108.609 9.08118C109.667 9.08118 110.586 9.8049 110.835 10.8327L113.973 23.7584L117.411 10.7153C117.663 9.75333 118.534 9.08296 119.528 9.08296C120.524 9.08296 121.395 9.75511 121.648 10.7189L125.057 23.7584L128.163 10.8487C128.412 9.81201 129.339 9.08296 130.406 9.08296C131.679 9.08296 132.712 10.1161 132.712 11.3893C132.712 11.6027 132.682 11.8143 132.625 12.0188L128.297 27.2099C127.929 28.499 126.751 29.3899 125.409 29.3899C124.038 29.3899 122.841 28.4617 122.5 27.1334V27.1316Z" fill="#21201F"/>
<path d="M137.099 26.495V11.9708C137.099 10.3739 138.393 9.07764 139.992 9.07764H145.106C151.47 9.07764 155.887 13.1266 155.887 19.2471C155.887 25.3677 151.472 29.3864 145.106 29.3864H139.992C138.395 29.3864 137.099 28.0919 137.099 26.4933V26.495ZM151.47 19.2489C151.47 15.6569 149.277 12.8847 145.106 12.8847H141.425V25.581H145.106C149.123 25.581 151.47 22.6879 151.47 19.2471V19.2489Z" fill="#21201F"/>
<path d="M0 26.2052V12.2944C0 10.5269 1.43322 9.09546 3.19897 9.09546H12.4687C13.5196 9.09724 14.3696 9.94899 14.3714 10.9981C14.3714 12.049 13.5196 12.9008 12.4687 12.9008H4.32457V17.1951H12.2553C13.3062 17.1951 14.1598 18.0469 14.1615 19.0978C14.1615 20.1505 13.308 21.004 12.2553 21.004H4.32457V25.6024H12.4705C13.5214 25.6042 14.3714 26.456 14.3731 27.5051C14.3731 28.556 13.5214 29.4078 12.4705 29.4078H3.19897C1.43145 29.4078 0 27.9763 0 26.2088V26.2052Z" fill="#21201F"/>
<path d="M91.3884 8.24011C85.5275 8.24011 80.778 12.9897 80.778 18.8506C80.778 21.8077 82.012 24.6297 84.1814 26.6373C84.2952 26.3741 84.4784 26.1358 84.5388 25.8531C84.6544 25.2147 84.7629 24.5817 84.7931 23.9327C84.8091 23.6037 84.7807 23.2694 84.8056 22.9404C84.8376 22.4728 84.9336 22.0015 85.0154 21.5392C85.0527 21.3276 85.0812 21.1036 85.1363 20.8973C85.1576 20.8226 85.2021 20.7604 85.1683 20.6804C85.131 20.6163 85.0812 20.563 85.0189 20.5239C84.8927 20.4207 84.7682 20.3158 84.6349 20.2234C84.5406 20.1647 84.4428 20.1113 84.3432 20.0651C84.217 19.9993 84.0872 19.9335 83.9627 19.8642C83.8258 19.7877 83.6906 19.7059 83.5537 19.6259C83.2354 19.4498 82.9474 19.2116 82.6664 18.9822C82.4921 18.8381 82.2983 18.6959 82.1561 18.5216C82.028 18.3598 81.8964 18.2015 81.7684 18.0415C81.756 18.022 81.7488 17.9988 81.7453 17.9757C81.603 17.9846 81.5106 17.8975 81.4234 17.805C81.3719 17.7588 81.331 17.7037 81.3025 17.6396C81.2794 17.565 81.2545 17.4529 81.2919 17.4049C81.3488 17.3338 81.3221 17.2129 81.4306 17.1773C81.4466 17.1702 81.4572 17.156 81.4608 17.14C81.4643 17.0724 81.523 17.019 81.5924 17.0244C81.6119 17.0244 81.6262 16.9764 81.6493 16.9586C81.7417 16.8821 81.8378 16.8928 81.9391 16.9924C81.9978 17.0511 82.0351 17.1311 82.0974 17.1844C82.1952 17.2716 82.2592 17.3907 82.2787 17.5205C82.3036 17.6272 82.4228 17.6307 82.4957 17.6859C82.6415 17.805 82.8069 17.901 82.9829 17.9704C83.2817 18.0735 83.5715 18.1962 83.8631 18.3171C84.1405 18.4327 84.4268 18.527 84.7024 18.6461C84.7487 18.6657 84.7985 18.6763 84.8429 18.6959C84.8874 18.7154 84.9514 18.7492 85.0065 18.7741C85.0954 18.815 85.1879 18.8933 85.2768 18.8879C85.4457 18.8808 85.6057 18.9413 85.7729 18.9235C85.94 18.9057 86.1161 18.9235 86.2868 18.9075C86.4255 18.8933 86.5642 18.8701 86.7029 18.8417L86.7865 18.8257C86.9127 18.799 87.0354 18.7599 87.1599 18.719C87.1866 18.7119 87.2097 18.6994 87.2328 18.6852C87.3253 18.6194 87.4195 18.5607 87.5084 18.495C87.6151 18.3936 87.6649 18.246 87.64 18.1002C87.6364 18.0877 87.6293 18.0771 87.6222 18.0682C87.4764 17.8993 87.3253 17.7339 87.1866 17.5596C87.1581 17.5223 87.1314 17.4849 87.1083 17.444C87.0674 17.3729 87.0745 17.2822 87.1261 17.2182C87.2043 17.1311 87.2879 17.0493 87.3751 16.9728C87.4106 16.9373 87.4462 16.9035 87.4764 16.8661C87.6009 16.7185 87.7307 16.5834 87.9316 16.5372C88.0045 16.5176 88.0685 16.4696 88.1094 16.4056L88.1397 16.4002L88.1201 16.3931C88.1503 16.3522 88.1752 16.306 88.2019 16.2651C88.2624 16.1726 88.3602 16.1122 88.4686 16.1015C88.666 16.0695 88.8545 16.0161 89.0466 15.9699C89.0697 15.9646 89.091 15.9504 89.1052 15.9308C89.171 15.7654 89.3026 15.705 89.468 15.7103C89.4929 15.7103 89.516 15.7156 89.5373 15.7281C89.5871 15.7672 89.6334 15.7476 89.6885 15.7459C89.7756 15.7423 89.8645 15.7885 89.9517 15.8188C89.9765 15.8277 89.9961 15.8668 90.0174 15.8686C90.1704 15.8792 90.1757 16.0179 90.2433 16.1051C90.3269 16.2153 90.3091 16.3024 90.2539 16.4074C90.2522 16.4127 90.2504 16.4162 90.2486 16.4216C90.2948 16.4643 90.3411 16.5069 90.3855 16.5532C90.4158 16.5816 90.43 16.6207 90.4264 16.6616C90.4158 16.7168 90.3926 16.7701 90.3553 16.8128C90.3749 16.8786 90.3926 16.9444 90.4086 17.0102C90.4407 17.1489 90.4567 17.2893 90.4798 17.4298C90.4922 17.5543 90.462 17.6788 90.3944 17.7855C90.3642 17.8406 90.3357 17.8993 90.3073 17.9562C90.2539 18.0753 90.1828 18.1873 90.0957 18.2851C89.9214 18.4629 89.6974 18.5056 89.5 18.6354C89.6565 18.7137 89.8876 18.7261 90.0619 18.751C90.2362 18.7759 90.4158 18.7688 90.5811 18.8097C90.6754 18.8417 90.7661 18.879 90.855 18.9235C91.2248 19.0675 91.5983 18.9768 91.9681 18.8897C92.4073 18.783 92.8554 18.7154 93.3071 18.6888C93.8441 18.6888 94.3829 18.655 94.9164 18.5874C95.128 18.5874 95.3556 18.5216 95.5636 18.4896C95.7717 18.4576 95.9833 18.4238 96.1949 18.4025C96.6305 18.3598 97.0644 18.2887 97.4912 18.1927C97.9233 18.1002 98.3465 17.9668 98.7679 17.8512C98.8284 17.8424 98.8871 17.8228 98.9404 17.7926C98.9902 17.757 99.04 17.7232 99.0916 17.6912C99.152 17.6539 99.216 17.6201 99.2818 17.5898C99.3281 17.5685 99.3743 17.5507 99.4223 17.5365C99.4579 17.5258 99.4881 17.5134 99.5254 17.5009C99.6499 17.4458 99.7762 17.3978 99.906 17.3551C100.086 17.3 100.253 17.2147 100.404 17.1026L100.592 16.971C100.623 16.9515 100.653 16.9319 100.681 16.9124C100.76 16.8626 100.838 16.811 100.918 16.7612L101.023 16.6954C101.035 16.6847 101.049 16.6776 101.064 16.6741C101.115 16.667 101.174 16.6492 101.204 16.7079C101.234 16.7594 101.222 16.827 101.172 16.8626C101.156 16.8786 101.136 16.8946 101.117 16.9052C101.064 16.9319 101.012 16.9639 100.964 16.9977C100.884 17.0528 100.809 17.1133 100.735 17.1755C100.66 17.2378 100.576 17.3071 100.493 17.3676C100.477 17.38 100.461 17.3925 100.445 17.4031C100.42 17.4227 100.404 17.4494 100.397 17.4796C100.384 17.5454 100.409 17.5632 100.471 17.5454C100.505 17.5347 100.537 17.5223 100.573 17.5098C100.628 17.4903 100.681 17.4689 100.738 17.4529L100.781 17.4405L101.028 17.3747L101.352 17.2876C101.419 17.2662 101.49 17.3 101.517 17.3658C101.528 17.4369 101.487 17.5045 101.419 17.5258C101.364 17.5436 101.305 17.5507 101.252 17.5685C101.199 17.5863 101.126 17.6094 101.064 17.629L100.822 17.7072L100.658 17.7606C100.644 17.7641 100.631 17.7677 100.617 17.7694L100.528 17.7855C100.445 17.8015 100.425 17.8335 100.443 17.9117C100.468 18.0148 100.402 18.1198 100.299 18.1446C100.294 18.1446 100.287 18.1464 100.281 18.1482C100.217 18.1482 100.166 18.198 100.164 18.262C100.164 18.2638 100.164 18.2656 100.164 18.2673C100.148 18.4114 100.119 18.4345 99.9807 18.4647C99.9006 18.4825 99.826 18.5252 99.7459 18.5483C99.5948 18.5963 99.4348 18.6016 99.2818 18.5643H99.2765C99.2107 18.6034 99.1449 18.6425 99.0827 18.6817C99.0364 18.7101 98.9955 18.7475 98.9511 18.7741C98.6506 18.9448 98.3678 19.1458 98.0567 19.3005C97.4521 19.5939 96.787 19.793 96.1433 19.9797C95.0213 20.3087 93.8797 20.5559 92.7505 20.8582C92.2064 21.0022 91.6641 21.1533 91.1199 21.2956C90.9385 21.3418 90.7607 21.397 90.5847 21.461C90.43 21.5197 90.2433 21.5748 90.1188 21.685C89.9339 21.8468 89.7827 22.0531 89.7507 22.3003C89.7045 22.6595 89.6529 23.0187 89.6245 23.3814C89.6031 23.6001 89.5996 23.8189 89.612 24.0394C89.6369 24.2599 89.6511 24.4821 89.6494 24.7026C89.6405 24.9498 89.6618 25.197 89.7152 25.4388C89.7827 25.7678 89.8254 26.1003 89.8432 26.4364C89.8645 26.7387 89.9285 27.0285 89.9499 27.3343C89.9659 27.5691 90.0103 27.8002 90.0157 28.0367C90.0228 28.2821 90.0103 28.5275 89.9783 28.7693C89.9588 28.9223 89.9303 29.0734 89.9036 29.2263L89.8805 29.3579C95.6792 30.2008 101.065 26.1839 101.908 20.3834C102.751 14.5847 98.7341 9.19856 92.9337 8.3557C92.4287 8.28279 91.9183 8.24545 91.408 8.24545L91.4027 8.24189L91.3884 8.24011Z" fill="#21201F"/>
<path d="M151.271 1.19139H149.937V0H154.141V1.19139H152.807V4.55573H151.271V1.19139Z" fill="#231F20"/>
<path d="M158.602 4.55395L158.59 2.4788L157.601 4.14497H156.924L155.935 2.55171V4.55573H154.536V0H155.798L157.281 2.42723L158.725 0H159.988L160 4.55395H158.601H158.602Z" fill="#231F20"/>
</svg>
