<?xml version="1.0" encoding="UTF-8"?>
<svg id="Layer_1" data-name="Layer 1" xmlns="http://www.w3.org/2000/svg" viewBox="0 0 411.98 546.76">
  <defs>
    <style>
      .cls-1 {
        fill: #f05f58;
      }

      .cls-2 {
        fill: #fbd402;
      }
    </style>
  </defs>
  <g>
    <path class="cls-1" d="m318.61,29.12c-25.86-8.64-53.83,5.32-62.47,31.19L115.4,481.74c-8.64,25.86,5.32,53.83,31.19,62.47h0c25.86,8.63,53.83-5.33,62.46-31.19L349.79,91.58c8.63-25.86-5.33-53.82-31.19-62.46Z"/>
    <path class="cls-2" d="m138.71,175.17l-42.51-114.86c-8.64-25.86-36.6-39.83-62.46-31.19C7.88,37.76-6.08,65.72,2.56,91.58l42.51,114.86c8.64,25.86,36.6,39.83,62.46,31.19h0c25.86-8.64,39.83-36.6,31.19-62.46Z"/>
  </g>
  <g>
    <path class="cls-1" d="m362.87,6.7h-7.5V0h23.64v6.7h-7.5v18.92h-8.64V6.7Z"/>
    <path class="cls-1" d="m404.11,25.61l-.07-11.67-5.56,9.37h-3.81l-5.56-8.96v11.27h-7.87V0h7.1l8.34,13.65,8.12-13.65h7.1l.07,25.61h-7.87Z"/>
  </g>
</svg>